HIERARCHY
ROOT Hips
{
  OFFSET 0.600105 89.7565 -0.424808
  CHANNELS 6 Xposition Yposition Zposition Zrotation Xrotation Yrotation
  JOINT Spine
  {
    OFFSET -0.000355721 21.3001 -0.016921
    CHANNELS 3 Zrotation Xrotation Yrotation
    JOINT LeftArm
    {
      OFFSET 13.5181 21.3012 0
      CHANNELS 3 Zrotation Xrotation Yrotation
      JOINT LeftForeArm
      {
        OFFSET 24.5783 0 0
        CHANNELS 3 Zrotation Xrotation Yrotation
        JOINT LeftHand
        {
          OFFSET 24.5783 0 0
          CHANNELS 3 Zrotation Xrotation Yrotation
          End Site
          {
            OFFSET 7.32568 1.52588e-05 0.0169305
          }
        }
      }
    }
    JOINT Head
    {
      OFFSET 0 27.4458 -0.00489235
      CHANNELS 3 Zrotation Xrotation Yrotation
      End Site
      {
        OFFSET 0 0 0
      }
    }
    JOINT RightArm
    {
      OFFSET -13.5174 21.3012 0
      CHANNELS 3 Zrotation Xrotation Yrotation
      JOINT RightForeArm
      {
        OFFSET -24.5783 0 0
        CHANNELS 3 Zrotation Xrotation Yrotation
        JOINT RightHand
        {
          OFFSET -24.5783 0 0
          CHANNELS 3 Zrotation Xrotation Yrotation
          End Site
          {
            OFFSET -7.32568 1.52588e-05 0.0169305
          }
        }
      }
    }
  }
  JOINT RightUpLeg
  {
    OFFSET -8.44614 -9.41038 0.835684
    CHANNELS 3 Zrotation Xrotation Yrotation
    JOINT RightLeg
    {
      OFFSET 0 -40.9639 0
      CHANNELS 3 Zrotation Xrotation Yrotation
      JOINT RightFoot
      {
        OFFSET 0 -40.9639 0
        CHANNELS 3 Zrotation Xrotation Yrotation
        End Site
        {
          OFFSET 0.50614 -9.67405 14.6709
        }
      }
    }
  }
  JOINT LeftUpLeg
  {
    OFFSET 8.44614 -9.41038 0.835684
    CHANNELS 3 Zrotation Xrotation Yrotation
    JOINT LeftLeg
    {
      OFFSET 0 -40.9639 0
      CHANNELS 3 Zrotation Xrotation Yrotation
      JOINT LeftFoot
      {
        OFFSET 0 -40.9639 0
        CHANNELS 3 Zrotation Xrotation Yrotation
        End Site
        {
          OFFSET -0.50614 -9.67405 14.6709
        }
      }
    }
  }
}
MOTION
Frames:	25
Frame Time:	0.0333333
0.598831 89.7518 -0.427496 -1.65454 0.421449 -48.2994 -0.337841 0.866266 0.765173 -65.1658 -24.1438 -29.1318 -2.031e-06 -1.3484e-05 -107.131 3.7861 -3.93097 0.45255 -8.68341 6.2158 40.3066 43.4981 28.9516 86.4812 -0.000262362 3.26165e-06 91.7499 -0.492927 -6.76068 0.804291 -15.5498 -15.3861 -9.6744 -6.44582 30.1026 0.570112 30.2082 -43.1307 17.5033 20.8552 -22.2474 16.5439 -1.59441 35.2176 11.1264 -9.55655 -35.3401 5.34653 
0.411512 89.3687 -0.691382 -1.50362 0.391594 -47.0404 -0.278643 0.898577 0.689613 -64.908 -26.0495 -31.8717 -2.02787e-06 -1.34739e-05 -107.118 3.58263 -4.2466 0.525775 -7.99181 5.65333 40.0386 44.1329 27.5254 86.2699 -0.000262377 3.74437e-06 92.009 -0.456088 -6.7862 0.804334 -15.2026 -16.2462 -9.18185 -7.41004 32.5145 0.196325 30.8608 -44.6598 17.3797 21.7367 -23.2484 16.9851 -3.04657 36.3757 11.9686 -9.92239 -35.5166 3.37859 
0.224132 88.9396 -0.78431 -1.69105 1.13663 -44.61 0.346955 0.878337 0.589556 -64.6907 -25.8736 -33.8679 -2.2385e-06 -1.41397e-05 -107.992 3.48945 -4.13969 0.513662 -6.21254 4.9159 38.6691 44.9781 25.4961 86.0131 -0.000262388 4.03219e-06 92.1635 -0.466407 -6.79918 0.804355 -14.7692 -16.6772 -9.37636 -7.10275 34.6022 -0.60133 30.6516 -46.4587 16.4606 23.9682 -24.9881 18.0352 -5.6083 37.9668 12.885 -10.038 -35.7764 0.351066 
0.00605136 88.6715 -0.536514 -2.81424 2.58891 -40.4275 1.6643 0.775248 0.574281 -63.0287 -20.9815 -31.9202 -2.26307e-06 -1.42151e-05 -108.091 3.78984 -3.42142 0.374707 -3.16411 4.47931 35.6601 46.4207 23.3178 85.9774 -0.000262375 3.6905e-06 91.98 -0.572944 -6.77396 0.804313 -14.0575 -15.3779 -10.3178 -4.62922 35.1741 -2.04152 28.4493 -48.5099 13.5795 26.9384 -27.1195 19.2341 -7.90546 39.399 12.4921 -9.84545 -35.8675 -3.02673 
-0.307765 88.5648 0.138168 -5.21722 4.11934 -34.7569 3.49889 0.581513 0.817102 -61.1444 -10.4513 -24.9689 -1.69708e-06 -1.23488e-05 -105.65 4.63582 -2.31287 0.130405 1.01531 4.63565 30.9589 49.248 21.7209 86.5333 -0.000262337 2.32936e-06 91.2496 -0.815284 -6.69823 0.804188 -12.358 -11.8105 -11.1459 -0.985915 33.5564 -3.46197 23.801 -50.6445 7.66017 28.9011 -29.7604 19.99 -6.04068 41.2841 6.40463 -9.12632 -36.4031 -3.37847 
-0.698557 88.2516 1.23238 -8.59344 4.87822 -28.5092 5.41215 0.339182 1.42191 -63.465 2.11163 -14.8513 -7.52884e-07 -8.26812e-06 -100.406 5.76307 -1.44578 -0.116738 5.88528 5.15272 25.0363 53.6811 21.0629 87.7572 -0.000262312 -3.77331e-08 89.9798 -1.21501 -6.58557 0.804003 -9.15074 -6.992 -10.9361 1.3601 31.105 -3.55717 17.2976 -53.0366 -1.66583 30.6473 -32.3739 20.2286 -2.96831 44.2551 -0.117846 -9.22818 -37.6547 -4.61934 
-0.99952 87.2994 2.70561 -12.2995 4.41185 -22.2377 7.0266 0.123243 2.28282 -70.0809 7.23649 -3.35499 -1.04388e-07 -3.08969e-06 -93.8701 6.50991 -1.38095 -0.227738 10.8599 5.29648 18.369 57.8889 20.6782 89.224 -0.000262352 -2.95073e-06 88.417 -1.78407 -6.45301 0.810328 -5.04347 -2.31415 -9.96667 1.59351 30.1532 -2.47152 10.088 -55.7666 -13.3469 32.1903 -35.2435 19.6818 0.274051 49.2828 -5.02676 -10.5398 -40.0002 -8.044 
-1.0627 85.7054 4.4912 -15.4952 2.67917 -16.0482 8.00881 -0.0180963 3.13506 -72.9913 -2.27484 6.47126 -4.13779e-08 1.94591e-06 -87.5637 6.22823 -2.18721 -0.101402 15.2515 4.45146 11.3516 58.3081 18.9982 90.7723 -0.000262481 -6.00238e-06 86.7785 -2.49067 -6.29765 0.84324 -1.24345 2.02109 -9.2491 0.897897 31.1393 -1.93164 4.03931 -58.6595 -24.2694 32.589 -38.2973 17.6587 3.32989 55.7642 -8.04949 -12.8189 -43.0363 -13.3759 
-0.8514 84.0409 6.5129 -17.102 0.0432431 -10.3304 8.04374 -0.0973481 3.76789 -65.8704 -23.2853 13.8475 -5.04854e-07 6.77981e-06 -81.4827 4.7669 -3.41824 0.239244 18.4117 3.0767 4.64479 52.8614 14.7081 92.0246 -0.000262743 -9.58391e-06 84.8521 -3.19547 -6.1235 0.904973 0.689747 6.72368 -9.57041 0.42605 31.7629 -3.62827 2.84671 -60.9082 -29.3521 29.9599 -40.6019 13.615 7.08933 61.6596 -10.8039 -15.2598 -46.1474 -18.5353 
-0.353692 83.0145 8.61323 -16.6379 -2.91061 -5.78937 7.03445 -0.142933 4.13221 -48.6681 -46.2579 22.9004 -1.65465e-06 1.21963e-05 -74.5479 2.58692 -4.43253 0.627173 20.2414 2.85555 -1.02099 43.5851 8.30558 90.5438 -0.00026339 -1.5139e-05 81.8517 -3.67951 -5.99812 0.967252 -0.0482663 13.1329 -11.5484 0.718544 29.1088 -2.59154 3.85163 -58.6131 -26.7722 24.6527 -40.6739 8.66361 10.0242 65.2802 -12.8238 -16.617 -48.8039 -21.9891 
0.308952 82.9487 10.4521 -15.0449 -6.06902 -2.57344 5.21887 -0.137741 4.22337 -24.1112 -62.5871 36.2991 -3.84668e-06 1.83678e-05 -66.3436 0.427871 -4.8352 0.871283 21.4638 5.30104 -5.49219 34.6131 3.11106 83.0098 -0.000265097 -2.42317e-05 76.8875 -3.83811 -6.05226 0.983164 -4.60392 16.1195 -14.1085 2.49008 35.0782 -0.576771 6.78547 -49.641 -19.9209 19.4655 -37.9026 5.13974 10.6135 66.1182 -12.5406 -17.393 -50.2387 -25.038 
0.783416 83.773 11.738 -13.8014 -9.64289 0.159925 3.10753 0.00910815 4.0047 -9.21249 -70.4602 40.7943 -6.84368e-06 2.40774e-05 -58.2658 -1.11042 -4.71767 0.917751 22.9985 10.1995 -9.38859 29.3442 3.27727 68.4453 -0.000268839 -3.67655e-05 69.8665 -3.84488 -6.38389 0.9236 -9.60966 12.3367 -15.9008 2.34521 50.0826 5.2331 13.1428 -34.4779 -13.0064 17.0309 -33.0824 4.17811 8.91419 64.4476 -9.79994 -19.03 -49.6398 -30.1364 
0.726817 85.3251 12.5205 -13.214 -13.2983 3.50792 1.17535 0.372353 3.47912 -29.8543 -69.8015 12.9504 -9.24207e-06 2.75812e-05 -52.9494 -1.77228 -4.47068 0.864993 25.3879 15.6394 -13.5196 30.2631 8.92936 48.7447 -0.000274859 -5.02298e-05 61.9485 -3.96978 -6.9452 0.803255 -12.2548 4.02697 -15.7762 -7.31602 68.848 16.3104 21.5754 -22.7736 -3.99323 16.7653 -27.5911 4.75842 7.81367 60.4567 -7.79477 -21.3622 -46.9147 -36.5433 
0.218004 87.4067 13.1249 -13.3516 -16.2673 7.97429 0.212988 0.916515 2.39642 -52.9345 -53.3041 -14.9594 -9.53216e-06 2.79613e-05 -52.3509 -1.6487 -4.38927 0.830035 28.8722 19.5631 -18.1228 37.5373 15.0401 26.1582 -0.000281848 -6.15764e-05 54.7955 -4.13311 -7.52771 0.675449 -12.7542 -6.54352 -13.8964 -45.9869 82.7241 53.785 28.257 -13.1429 5.77792 17.9046 -22.8401 5.65101 7.6594 54.7888 -9.08821 -22.296 -43.1226 -40.4515 
-0.584249 89.7298 13.5699 -14.1413 -18.0482 12.8871 -0.0369311 1.59575 0.788071 -58.7363 -26.7919 -28.3053 -7.78787e-06 2.55411e-05 -56.0855 -1.04237 -4.50956 0.844162 33.6424 21.2098 -22.8802 47.709 17.3364 3.66405 -0.000288293 -6.98223e-05 49.1792 -3.80363 -7.87624 0.604654 -14.2547 -19.9987 -10.7106 -143.503 82.3791 148.466 29.8378 -5.27619 12.9283 20.7395 -19.3376 6.97955 5.60803 47.9242 -12.2299 -19.3195 -39.8849 -39.3712 
-1.44828 92.0204 13.9951 -15.6938 -18.9199 17.1802 -0.0805578 2.39467 -1.27313 -55.2898 -1.63591 -40.8204 -5.44509e-06 2.16533e-05 -61.7693 -0.244514 -4.75853 0.87135 39.6535 21.1611 -27.2764 56.7962 16.7832 -15.3375 -0.000294264 -7.61896e-05 44.4953 -2.56906 -7.8542 0.628478 -17.3921 -35.7665 -7.71226 -158.082 78.9882 160.745 26.0689 1.18676 13.2503 27.3274 -16.1681 9.33433 -4.85259 40.3659 -7.19629 -13.7689 -35.7622 -37.0461 
-1.48039 93.9926 14.6657 -18.2575 -19.6956 19.6342 0.413161 3.27256 -3.84389 -47.1622 14.0338 -55.5953 -3.63886e-06 1.78859e-05 -67.0004 0.593649 -5.09436 0.88048 45.9351 20.6781 -30.2184 63.8239 16.9262 -29.6792 2.65036e-05 -8.20121e-05 39.8414 -0.729668 -7.53308 0.72902 -21.1299 -49.5284 -7.52393 -116.791 84.4041 116.973 18.0845 5.83497 11.3632 32.7584 -12.5417 11.7998 -8.14228 32.7449 -6.69555 -12.4159 -32.4562 -36.0652 
0.384662 95.5206 15.3667 -21.9979 -20.3538 18.8472 1.99758 4.03549 -6.87119 -40.6724 19.6998 -67.428 -2.46764e-06 1.48267e-05 -71.1014 1.38475 -5.46294 0.883116 50.5712 21.0615 -29.8138 69.3172 19.6781 -39.8604 -0.210881 -8.69046e-05 35.5483 0.921937 -7.12738 0.846089 -25.1966 -57.0193 -11.5443 -13.8492 68.784 10.6584 5.62602 5.82175 14.639 35.3146 -9.12505 13.3497 -7.67026 27.1949 -7.42562 -11.7213 -30.9837 -35.5322 
4.12951 96.6147 15.5903 -26.6066 -19.5889 14.6705 4.75136 4.45149 -10.1223 -38.3168 18.9145 -71.9019 -1.62605e-06 1.20924e-05 -74.6829 2.01117 -5.75094 0.883149 52.0898 22.8759 -24.8414 71.9546 25.0436 -45.2864 6.10149e-05 -9.04448e-05 32.1379 1.85846 -6.83377 0.92604 -26.514 -59.594 -15.2796 -5.82995 35.6915 -2.38607 -6.89199 -1.1974 21.7156 35.5681 -6.36271 14.1061 -6.22654 22.7821 -8.0618 -10.3148 -30.1927 -35.1091 
8.2392 97.4984 15.2851 -30.462 -16.9669 9.32608 7.92216 4.55663 -12.9998 -37.3088 14.8084 -70.0148 -1.04124e-06 9.70793e-06 -77.7561 2.38827 -5.8764 0.881149 50.5882 25.27 -16.7458 70.6104 30.7736 -47.0016 2.32116e-05 -9.15457e-05 31.0101 2.13454 -6.72729 0.953763 -24.4976 -62.8254 -15.1875 -4.96478 7.28069 -8.22395 -12.5809 -12.6589 25.5422 33.6477 -4.56124 14.5477 -0.964204 18.0458 -9.61811 -11.8523 -29.0216 -34.7875 
10.5795 97.9318 14.9957 -31.8578 -14.797 5.23069 10.3862 4.64249 -14.5956 -35.487 11.4312 -64.6513 -8.50324e-07 8.78217e-06 -78.9393 2.54221 -5.87498 0.877881 47.5995 26.6709 -9.47886 65.1784 35.2063 -46.0802 2.39445e-05 -9.11011e-05 31.4699 2.05831 -6.77714 0.943276 -21.5889 -73.092 -12.4477 -4.93496 3.97741 -9.86796 -10.8789 -25.454 22.5938 31.0064 -2.69695 14.2031 3.04409 13.5178 -9.87756 -13.5767 -27.2504 -34.3958 
10.3667 97.28 14.8922 -30.6158 -15.6571 3.33673 11.1319 4.97178 -14.4122 -33.8217 11.9145 -58.4754 -1.19099e-06 1.0374e-05 -76.9016 2.53418 -5.83257 0.874204 44.7429 26.3476 -6.44774 58.191 38.1917 -44.7263 2.51121e-05 -9.03761e-05 32.2071 1.8445 -6.90773 0.914004 -14.806 -83.194 -5.33146 -4.26728 17.8265 -8.76204 -6.83946 -29.0385 14.4507 30.2941 -3.20443 12.9295 2.90736 18.5604 -10.0668 -13.6851 -29.4914 -34.8388 
8.67843 95.7143 15.1737 -27.9748 -19.07 3.83962 10.0235 5.45764 -13.0536 -33.8273 15.2364 -52.9366 -2.21329e-06 1.40618e-05 -72.1104 2.3131 -5.75824 0.868478 42.3977 24.6561 -7.47419 51.3342 40.7486 -42.9099 2.55419e-05 -9.01039e-05 32.48 1.57612 -7.04499 0.88021 1.41574 -86.8054 10.1356 -3.34705 35.3312 -8.28363 0.654699 -21.2239 6.42138 29.8792 -4.56333 11.652 2.9066 28.4046 -10.8933 -15.0132 -34.4384 -36.5058 
6.89554 94.1653 15.6542 -25.0855 -22.0163 5.57076 7.80996 5.74408 -11.414 -35.4969 17.8647 -47.4482 -3.75925e-06 1.81669e-05 -66.6178 1.72379 -5.57663 0.857167 39.9542 22.1792 -9.51762 43.1067 42.7695 -37.3934 2.62166e-05 -8.96708e-05 32.9101 1.24352 -7.15238 0.845984 1.9229 -83.8474 8.16433 -4.2981 47.3688 -7.25243 11.0314 -8.0492 2.65149 29.4466 -5.2209 11.231 2.60724 35.2546 -11.2717 -15.5269 -37.5464 -37.8263 
5.44141 93.2541 15.8006 -21.9582 -22.1681 6.70249 5.22795 5.52884 -9.78049 -37.7694 17.4633 -41.3271 -5.18506e-06 2.11618e-05 -62.4653 0.73407 -5.24846 0.851711 36.8901 19.0764 -9.89937 31.7461 42.2583 -26.0275 2.9226e-05 -8.765e-05 34.8547 0.73866 -7.2383 0.804744 2.19626 -78.5492 5.38456 -6.97165 53.886 0.483224 18.2772 2.41346 -4.43937 27.7596 -6.47562 11.2563 2.2911 38.4035 -11.3532 -15.9007 -38.613 -38.3047 
